<svg width="416" height="77" viewBox="0 0 416 77" fill="none" xmlns="http://www.w3.org/2000/svg">
<path d="M93.8864 28.25C93.6742 26.2652 92.7803 24.7197 91.2045 23.6136C89.6439 22.5076 87.6136 21.9545 85.1136 21.9545C83.3561 21.9545 81.8485 22.2197 80.5909 22.75C79.3333 23.2803 78.3712 24 77.7045 24.9091C77.0379 25.8182 76.697 26.8561 76.6818 28.0227C76.6818 28.9924 76.9015 29.8333 77.3409 30.5455C77.7955 31.2576 78.4091 31.8636 79.1818 32.3636C79.9545 32.8485 80.8106 33.2576 81.75 33.5909C82.6894 33.9242 83.6364 34.2045 84.5909 34.4318L88.9545 35.5227C90.7121 35.9318 92.4015 36.4848 94.0227 37.1818C95.6591 37.8788 97.1212 38.7576 98.4091 39.8182C99.7121 40.8788 100.742 42.1591 101.5 43.6591C102.258 45.1591 102.636 46.9167 102.636 48.9318C102.636 51.6591 101.939 54.0606 100.545 56.1364C99.1515 58.197 97.1364 59.8106 94.5 60.9773C91.8788 62.1288 88.7045 62.7045 84.9773 62.7045C81.3561 62.7045 78.2121 62.1439 75.5455 61.0227C72.8939 59.9015 70.8182 58.2652 69.3182 56.1136C67.8333 53.9621 67.0303 51.3409 66.9091 48.25H75.2045C75.3258 49.8712 75.8258 51.2197 76.7045 52.2955C77.5833 53.3712 78.7273 54.1742 80.1364 54.7045C81.5606 55.2348 83.1515 55.5 84.9091 55.5C86.7424 55.5 88.3485 55.2273 89.7273 54.6818C91.1212 54.1212 92.2121 53.3485 93 52.3636C93.7879 51.3636 94.1894 50.197 94.2045 48.8636C94.1894 47.6515 93.8333 46.6515 93.1364 45.8636C92.4394 45.0606 91.4621 44.3939 90.2045 43.8636C88.9621 43.3182 87.5076 42.8333 85.8409 42.4091L80.5455 41.0455C76.7121 40.0606 73.6818 38.5682 71.4545 36.5682C69.2424 34.553 68.1364 31.8788 68.1364 28.5455C68.1364 25.803 68.8788 23.4015 70.3636 21.3409C71.8636 19.2803 73.9015 17.6818 76.4773 16.5455C79.053 15.3939 81.9697 14.8182 85.2273 14.8182C88.5303 14.8182 91.4242 15.3939 93.9091 16.5455C96.4091 17.6818 98.3712 19.2652 99.7955 21.2955C101.22 23.3106 101.955 25.6288 102 28.25H93.8864ZM122.457 62.6818C118.972 62.6818 115.98 61.9167 113.48 60.3864C110.995 58.8561 109.078 56.7424 107.73 54.0455C106.396 51.3333 105.73 48.2121 105.73 44.6818C105.73 41.1364 106.412 38.0076 107.775 35.2955C109.139 32.5682 111.063 30.447 113.548 28.9318C116.048 27.4015 119.002 26.6364 122.412 26.6364C125.245 26.6364 127.752 27.1591 129.934 28.2045C132.131 29.2348 133.881 30.697 135.184 32.5909C136.487 34.4697 137.23 36.6667 137.412 39.1818H129.548C129.23 37.5 128.472 36.0985 127.275 34.9773C126.093 33.8409 124.51 33.2727 122.525 33.2727C120.843 33.2727 119.366 33.7273 118.093 34.6364C116.821 35.5303 115.828 36.8182 115.116 38.5C114.419 40.1818 114.071 42.197 114.071 44.5455C114.071 46.9242 114.419 48.9697 115.116 50.6818C115.813 52.3788 116.79 53.6894 118.048 54.6136C119.321 55.5227 120.813 55.9773 122.525 55.9773C123.737 55.9773 124.821 55.75 125.775 55.2955C126.745 54.8258 127.556 54.1515 128.207 53.2727C128.859 52.3939 129.306 51.3258 129.548 50.0682H137.412C137.215 52.5379 136.487 54.7273 135.23 56.6364C133.972 58.5303 132.26 60.0152 130.093 61.0909C127.927 62.1515 125.381 62.6818 122.457 62.6818ZM151.653 62.7045C149.441 62.7045 147.448 62.3106 145.675 61.5227C143.918 60.7197 142.524 59.5379 141.494 57.9773C140.478 56.4167 139.971 54.4924 139.971 52.2045C139.971 50.2348 140.335 48.6061 141.062 47.3182C141.789 46.0303 142.782 45 144.039 44.2273C145.297 43.4545 146.713 42.8712 148.289 42.4773C149.88 42.0682 151.524 41.7727 153.221 41.5909C155.266 41.3788 156.925 41.1894 158.198 41.0227C159.471 40.8409 160.395 40.5682 160.971 40.2045C161.562 39.8258 161.857 39.2424 161.857 38.4545V38.3182C161.857 36.6061 161.35 35.2803 160.335 34.3409C159.319 33.4015 157.857 32.9318 155.948 32.9318C153.933 32.9318 152.335 33.3712 151.153 34.25C149.986 35.1288 149.198 36.1667 148.789 37.3636L141.107 36.2727C141.713 34.1515 142.713 32.3788 144.107 30.9545C145.501 29.5151 147.206 28.4394 149.221 27.7273C151.236 27 153.463 26.6364 155.903 26.6364C157.585 26.6364 159.259 26.8333 160.925 27.2273C162.592 27.6212 164.115 28.2727 165.494 29.1818C166.872 30.0758 167.978 31.2955 168.812 32.8409C169.66 34.3864 170.085 36.3182 170.085 38.6364V62H162.175V57.2045H161.903C161.403 58.1742 160.698 59.0833 159.789 59.9318C158.895 60.7652 157.766 61.4394 156.403 61.9545C155.054 62.4545 153.471 62.7045 151.653 62.7045ZM153.789 56.6591C155.441 56.6591 156.872 56.3333 158.085 55.6818C159.297 55.0152 160.228 54.1364 160.88 53.0455C161.547 51.9545 161.88 50.7652 161.88 49.4773V45.3636C161.622 45.5758 161.183 45.7727 160.562 45.9545C159.956 46.1364 159.274 46.2955 158.516 46.4318C157.759 46.5682 157.009 46.6894 156.266 46.7955C155.524 46.9015 154.88 46.9924 154.335 47.0682C153.107 47.2348 152.009 47.5076 151.039 47.8864C150.069 48.2652 149.304 48.7955 148.744 49.4773C148.183 50.1439 147.903 51.0076 147.903 52.0682C147.903 53.5833 148.456 54.7273 149.562 55.5C150.668 56.2727 152.077 56.6591 153.789 56.6591ZM184.025 15.4545V62H175.797V15.4545H184.025ZM205.379 62.6818C201.879 62.6818 198.857 61.9545 196.311 60.5C193.781 59.0303 191.834 56.9545 190.47 54.2727C189.107 51.5758 188.425 48.4015 188.425 44.75C188.425 41.1591 189.107 38.0076 190.47 35.2955C191.849 32.5682 193.773 30.447 196.243 28.9318C198.713 27.4015 201.614 26.6364 204.948 26.6364C207.099 26.6364 209.129 26.9848 211.038 27.6818C212.963 28.3636 214.66 29.4242 216.129 30.8636C217.614 32.303 218.781 34.1364 219.629 36.3636C220.478 38.5758 220.902 41.2121 220.902 44.2727V46.7955H192.288V41.25H213.016C213.001 39.6742 212.66 38.2727 211.993 37.0455C211.326 35.803 210.394 34.8258 209.198 34.1136C208.016 33.4015 206.637 33.0455 205.061 33.0455C203.379 33.0455 201.902 33.4545 200.629 34.2727C199.357 35.0758 198.364 36.1364 197.652 37.4545C196.955 38.7576 196.599 40.1894 196.584 41.75V46.5909C196.584 48.6212 196.955 50.3636 197.698 51.8182C198.44 53.2576 199.478 54.3636 200.811 55.1364C202.144 55.8939 203.705 56.2727 205.493 56.2727C206.69 56.2727 207.773 56.1061 208.743 55.7727C209.713 55.4242 210.554 54.9167 211.266 54.25C211.978 53.5833 212.516 52.7576 212.879 51.7727L220.561 52.6364C220.076 54.6667 219.152 56.4394 217.788 57.9545C216.44 59.4545 214.713 60.6212 212.607 61.4545C210.501 62.2727 208.091 62.6818 205.379 62.6818ZM256.848 30.3182C256.469 29.0909 255.946 27.9924 255.28 27.0227C254.628 26.0379 253.84 25.197 252.916 24.5C252.007 23.803 250.961 23.2803 249.78 22.9318C248.598 22.5682 247.31 22.3864 245.916 22.3864C243.416 22.3864 241.189 23.0152 239.234 24.2727C237.28 25.5303 235.742 27.3788 234.62 29.8182C233.514 32.2424 232.961 35.197 232.961 38.6818C232.961 42.197 233.514 45.1742 234.62 47.6136C235.727 50.053 237.264 51.9091 239.234 53.1818C241.204 54.4394 243.492 55.0682 246.098 55.0682C248.461 55.0682 250.507 54.6136 252.234 53.7045C253.977 52.7955 255.317 51.5076 256.257 49.8409C257.196 48.1591 257.666 46.1894 257.666 43.9318L259.575 44.2273H246.939V37.6364H265.825V43.2273C265.825 47.2121 264.977 50.6591 263.28 53.5682C261.583 56.4773 259.249 58.7197 256.28 60.2955C253.31 61.8561 249.901 62.6364 246.052 62.6364C241.764 62.6364 237.999 61.6742 234.757 59.75C231.53 57.8106 229.007 55.0606 227.189 51.5C225.386 47.9242 224.484 43.6818 224.484 38.7727C224.484 35.0152 225.014 31.6591 226.075 28.7045C227.151 25.75 228.651 23.2424 230.575 21.1818C232.499 19.1061 234.757 17.5303 237.348 16.4545C239.939 15.3636 242.757 14.8182 245.802 14.8182C248.378 14.8182 250.78 15.197 253.007 15.9545C255.234 16.697 257.211 17.7576 258.939 19.1364C260.681 20.5152 262.113 22.1515 263.234 24.0455C264.355 25.9394 265.09 28.0303 265.439 30.3182H256.848ZM286.509 62.6818C283.009 62.6818 279.987 61.9545 277.441 60.5C274.911 59.0303 272.964 56.9545 271.6 54.2727C270.237 51.5758 269.555 48.4015 269.555 44.75C269.555 41.1591 270.237 38.0076 271.6 35.2955C272.979 32.5682 274.903 30.447 277.373 28.9318C279.843 27.4015 282.744 26.6364 286.077 26.6364C288.229 26.6364 290.259 26.9848 292.168 27.6818C294.093 28.3636 295.79 29.4242 297.259 30.8636C298.744 32.303 299.911 34.1364 300.759 36.3636C301.608 38.5758 302.032 41.2121 302.032 44.2727V46.7955H273.418V41.25H294.146C294.131 39.6742 293.79 38.2727 293.123 37.0455C292.456 35.803 291.524 34.8258 290.327 34.1136C289.146 33.4015 287.767 33.0455 286.191 33.0455C284.509 33.0455 283.032 33.4545 281.759 34.2727C280.487 35.0758 279.494 36.1364 278.782 37.4545C278.085 38.7576 277.729 40.1894 277.714 41.75V46.5909C277.714 48.6212 278.085 50.3636 278.827 51.8182C279.57 53.2576 280.608 54.3636 281.941 55.1364C283.274 55.8939 284.835 56.2727 286.623 56.2727C287.82 56.2727 288.903 56.1061 289.873 55.7727C290.843 55.4242 291.684 54.9167 292.396 54.25C293.108 53.5833 293.646 52.7576 294.009 51.7727L301.691 52.6364C301.206 54.6667 300.282 56.4394 298.918 57.9545C297.57 59.4545 295.843 60.6212 293.737 61.4545C291.631 62.2727 289.221 62.6818 286.509 62.6818ZM314.66 41.5455V62H306.432V27.0909H314.296V33.0227H314.705C315.508 31.0682 316.788 29.5152 318.546 28.3636C320.319 27.2121 322.508 26.6364 325.114 26.6364C327.523 26.6364 329.622 27.1515 331.41 28.1818C333.213 29.2121 334.607 30.7045 335.591 32.6591C336.591 34.6136 337.084 36.9848 337.069 39.7727V62H328.841V41.0455C328.841 38.7121 328.235 36.8864 327.023 35.5682C325.826 34.25 324.167 33.5909 322.046 33.5909C320.607 33.5909 319.326 33.9091 318.205 34.5455C317.099 35.1667 316.228 36.0682 315.591 37.25C314.97 38.4318 314.66 39.8636 314.66 41.5455ZM349.213 62H340.213L356.6 15.4545H367.009L383.418 62H374.418L361.986 25H361.622L349.213 62ZM349.509 43.75H374.054V50.5227H349.509V43.75ZM395.42 15.4545V62H386.988V15.4545H395.42ZM406.695 62.5C405.317 62.5 404.135 62.0152 403.15 61.0455C402.165 60.0758 401.68 58.8939 401.695 57.5C401.68 56.1364 402.165 54.9697 403.15 54C404.135 53.0303 405.317 52.5455 406.695 52.5455C408.029 52.5455 409.188 53.0303 410.173 54C411.173 54.9697 411.68 56.1364 411.695 57.5C411.68 58.4242 411.438 59.2652 410.968 60.0227C410.514 60.7803 409.908 61.3864 409.15 61.8409C408.408 62.2803 407.589 62.5 406.695 62.5Z" fill="url(#paint0_linear_1830_2570)"/>
<rect y="38.7608" width="48" height="26.1818" fill="url(#paint1_linear_1830_2570)"/>
<rect y="28.9426" width="48" height="8" fill="url(#paint2_linear_1830_2570)"/>
<rect y="20.9426" width="48" height="6" fill="url(#paint3_linear_1830_2570)"/>
<rect y="14.9426" width="48" height="4" fill="url(#paint4_linear_1830_2570)"/>
<defs>
<linearGradient id="paint0_linear_1830_2570" x1="64" y1="0" x2="416" y2="77" gradientUnits="userSpaceOnUse">
<stop stop-color="#2E87D9"/>
<stop offset="0.48" stop-color="#5CB1FF"/>
<stop offset="1" stop-color="#2E87D9"/>
</linearGradient>
<linearGradient id="paint1_linear_1830_2570" x1="24" y1="38.7608" x2="24" y2="64.9426" gradientUnits="userSpaceOnUse">
<stop stop-color="#2E87D9"/>
<stop offset="0.525" stop-color="#2E87D9"/>
<stop offset="1" stop-color="#2E87D9"/>
</linearGradient>
<linearGradient id="paint2_linear_1830_2570" x1="24" y1="28.9426" x2="24" y2="36.9426" gradientUnits="userSpaceOnUse">
<stop stop-color="#2E87D9"/>
<stop offset="0.525" stop-color="#2E87D9"/>
<stop offset="1" stop-color="#2E87D9"/>
</linearGradient>
<linearGradient id="paint3_linear_1830_2570" x1="24" y1="20.9426" x2="24" y2="26.9426" gradientUnits="userSpaceOnUse">
<stop stop-color="#2E87D9"/>
<stop offset="0.525" stop-color="#2E87D9"/>
<stop offset="1" stop-color="#2E87D9"/>
</linearGradient>
<linearGradient id="paint4_linear_1830_2570" x1="24" y1="14.9426" x2="24" y2="18.9426" gradientUnits="userSpaceOnUse">
<stop stop-color="#2E87D9"/>
<stop offset="0.525" stop-color="#2E87D9"/>
<stop offset="1" stop-color="#2E87D9"/>
</linearGradient>
</defs>
</svg>
